<svg width="1060" height="414" viewBox="0 0 1060 414" fill="none" xmlns="http://www.w3.org/2000/svg">
<rect width="1060" height="414" fill="white"/>
<g clip-path="url(#clip0_1972_2580)">
<path d="M328.29 113V78.0909H342.847C345.461 78.0909 347.648 78.4602 349.41 79.1989C351.183 79.9375 352.512 80.9716 353.398 82.3011C354.296 83.6307 354.745 85.1705 354.745 86.9205C354.745 88.25 354.467 89.4375 353.91 90.483C353.353 91.517 352.586 92.375 351.609 93.0568C350.631 93.7386 349.501 94.2159 348.217 94.4886V94.8295C349.626 94.8977 350.927 95.2784 352.12 95.9716C353.325 96.6648 354.29 97.6307 355.018 98.8693C355.745 100.097 356.109 101.551 356.109 103.233C356.109 105.108 355.631 106.784 354.677 108.261C353.722 109.727 352.342 110.886 350.535 111.739C348.728 112.58 346.535 113 343.955 113H328.29ZM336.728 106.199H341.944C343.773 106.199 345.12 105.852 345.984 105.159C346.859 104.466 347.296 103.5 347.296 102.261C347.296 101.364 347.086 100.591 346.665 99.9432C346.245 99.2841 345.648 98.7784 344.876 98.4261C344.103 98.0625 343.177 97.8807 342.097 97.8807H336.728V106.199ZM336.728 92.4432H341.398C342.319 92.4432 343.137 92.2898 343.853 91.983C344.569 91.6761 345.126 91.233 345.523 90.6534C345.933 90.0739 346.137 89.375 346.137 88.5568C346.137 87.3864 345.722 86.4659 344.893 85.7955C344.063 85.125 342.944 84.7898 341.535 84.7898H336.728V92.4432ZM377.058 101.699V86.8182H385.376V113H377.433V108.125H377.16C376.58 109.727 375.592 111 374.194 111.943C372.808 112.875 371.131 113.341 369.165 113.341C367.381 113.341 365.813 112.932 364.461 112.114C363.109 111.295 362.058 110.153 361.308 108.688C360.558 107.21 360.177 105.483 360.165 103.506V86.8182H368.501V101.869C368.512 103.29 368.887 104.409 369.626 105.227C370.364 106.045 371.37 106.455 372.643 106.455C373.472 106.455 374.217 106.273 374.876 105.909C375.546 105.534 376.075 104.994 376.461 104.29C376.859 103.574 377.058 102.71 377.058 101.699ZM405.46 86.8182V92.9545H388.942V86.8182H405.46ZM392.403 80.5455H400.738V104.767C400.738 105.278 400.817 105.693 400.977 106.011C401.147 106.318 401.391 106.54 401.71 106.676C402.028 106.801 402.408 106.864 402.852 106.864C403.17 106.864 403.505 106.835 403.857 106.778C404.221 106.71 404.494 106.653 404.675 106.608L405.937 112.625C405.539 112.739 404.977 112.881 404.249 113.051C403.533 113.222 402.675 113.33 401.675 113.375C399.721 113.466 398.045 113.239 396.647 112.693C395.261 112.136 394.198 111.273 393.46 110.102C392.732 108.932 392.38 107.46 392.403 105.688V80.5455ZM424.491 86.8182V92.9545H407.974V86.8182H424.491ZM411.434 80.5455H419.769V104.767C419.769 105.278 419.849 105.693 420.008 106.011C420.178 106.318 420.423 106.54 420.741 106.676C421.059 106.801 421.44 106.864 421.883 106.864C422.201 106.864 422.536 106.835 422.888 106.778C423.252 106.71 423.525 106.653 423.707 106.608L424.968 112.625C424.57 112.739 424.008 112.881 423.281 113.051C422.565 113.222 421.707 113.33 420.707 113.375C418.752 113.466 417.076 113.239 415.678 112.693C414.292 112.136 413.229 111.273 412.491 110.102C411.763 108.932 411.411 107.46 411.434 105.688V80.5455ZM440.684 113.494C437.934 113.494 435.57 112.932 433.593 111.807C431.627 110.67 430.11 109.091 429.042 107.068C427.985 105.034 427.457 102.676 427.457 99.9943C427.457 97.3011 427.985 94.9432 429.042 92.9205C430.11 90.8864 431.627 89.3068 433.593 88.1818C435.57 87.0455 437.934 86.4773 440.684 86.4773C443.434 86.4773 445.792 87.0455 447.758 88.1818C449.735 89.3068 451.252 90.8864 452.309 92.9205C453.377 94.9432 453.911 97.3011 453.911 99.9943C453.911 102.676 453.377 105.034 452.309 107.068C451.252 109.091 449.735 110.67 447.758 111.807C445.792 112.932 443.434 113.494 440.684 113.494ZM440.735 107.205C441.735 107.205 442.582 106.898 443.275 106.284C443.968 105.67 444.496 104.818 444.86 103.727C445.235 102.636 445.423 101.375 445.423 99.9432C445.423 98.4886 445.235 97.2159 444.86 96.125C444.496 95.0341 443.968 94.1818 443.275 93.5682C442.582 92.9545 441.735 92.6477 440.735 92.6477C439.701 92.6477 438.826 92.9545 438.11 93.5682C437.406 94.1818 436.866 95.0341 436.491 96.125C436.127 97.2159 435.945 98.4886 435.945 99.9432C435.945 101.375 436.127 102.636 436.491 103.727C436.866 104.818 437.406 105.67 438.11 106.284C438.826 106.898 439.701 107.205 440.735 107.205ZM458.181 113V86.8182H466.107V91.625H466.397C466.942 90.0341 467.863 88.7784 469.158 87.858C470.454 86.9375 471.999 86.4773 473.795 86.4773C475.613 86.4773 477.17 86.9432 478.465 87.875C479.761 88.8068 480.585 90.0568 480.937 91.625H481.21C481.698 90.0682 482.653 88.8239 484.073 87.892C485.494 86.9489 487.17 86.4773 489.102 86.4773C491.579 86.4773 493.59 87.2727 495.136 88.8636C496.681 90.4432 497.454 92.6136 497.454 95.375V113H489.119V97.2841C489.119 95.9773 488.783 94.983 488.113 94.3011C487.442 93.608 486.573 93.2614 485.505 93.2614C484.357 93.2614 483.454 93.6364 482.795 94.3864C482.147 95.125 481.823 96.1193 481.823 97.3693V113H473.812V97.1989C473.812 95.983 473.482 95.0227 472.823 94.3182C472.164 93.6136 471.295 93.2614 470.215 93.2614C469.488 93.2614 468.846 93.4375 468.289 93.7898C467.732 94.1307 467.295 94.6193 466.977 95.2557C466.67 95.892 466.516 96.642 466.516 97.5057V113H458.181ZM531.8 88.5568C531.687 87.3068 531.181 86.3352 530.283 85.642C529.397 84.9375 528.13 84.5852 526.482 84.5852C525.391 84.5852 524.482 84.7273 523.755 85.0114C523.028 85.2955 522.482 85.6875 522.119 86.1875C521.755 86.6761 521.567 87.2386 521.556 87.875C521.533 88.3977 521.636 88.858 521.863 89.2557C522.102 89.6534 522.442 90.0057 522.886 90.3125C523.34 90.608 523.886 90.8693 524.522 91.0966C525.158 91.3239 525.874 91.5227 526.67 91.6932L529.67 92.375C531.397 92.75 532.92 93.25 534.238 93.875C535.567 94.5 536.681 95.2443 537.579 96.108C538.488 96.9716 539.175 97.9659 539.641 99.0909C540.107 100.216 540.346 101.477 540.357 102.875C540.346 105.08 539.789 106.972 538.687 108.551C537.585 110.131 535.999 111.341 533.931 112.182C531.874 113.023 529.391 113.443 526.482 113.443C523.562 113.443 521.016 113.006 518.846 112.131C516.675 111.256 514.988 109.926 513.783 108.142C512.579 106.358 511.96 104.102 511.925 101.375H520.005C520.073 102.5 520.374 103.438 520.908 104.188C521.442 104.938 522.175 105.506 523.107 105.892C524.05 106.278 525.141 106.472 526.38 106.472C527.516 106.472 528.482 106.318 529.278 106.011C530.085 105.705 530.704 105.278 531.136 104.733C531.567 104.187 531.789 103.562 531.8 102.858C531.789 102.199 531.585 101.636 531.187 101.17C530.789 100.693 530.175 100.284 529.346 99.9432C528.528 99.5909 527.482 99.267 526.21 98.9716L522.562 98.1193C519.539 97.4261 517.158 96.3068 515.42 94.7614C513.681 93.2045 512.817 91.1023 512.829 88.4545C512.817 86.2955 513.397 84.4034 514.567 82.7784C515.738 81.1534 517.357 79.8864 519.425 78.9773C521.494 78.0682 523.852 77.6136 526.499 77.6136C529.204 77.6136 531.55 78.0739 533.539 78.9943C535.539 79.9034 537.09 81.1818 538.192 82.8295C539.295 84.4773 539.857 86.3864 539.88 88.5568H531.8ZM552.954 98.0682V113H544.619V78.0909H552.681V91.625H552.971C553.562 90.0114 554.528 88.75 555.869 87.8409C557.221 86.9318 558.874 86.4773 560.829 86.4773C562.67 86.4773 564.272 86.8864 565.636 87.7045C566.999 88.5114 568.056 89.6534 568.806 91.1307C569.567 92.608 569.942 94.3352 569.931 96.3125V113H561.596V97.9489C561.607 96.4943 561.244 95.358 560.505 94.5398C559.766 93.7216 558.727 93.3125 557.386 93.3125C556.511 93.3125 555.738 93.5057 555.067 93.892C554.408 94.267 553.891 94.8068 553.516 95.5114C553.153 96.2159 552.965 97.0682 552.954 98.0682ZM587.373 113.494C584.634 113.494 582.271 112.955 580.282 111.875C578.305 110.784 576.782 109.233 575.714 107.222C574.657 105.199 574.129 102.795 574.129 100.011C574.129 97.3068 574.663 94.9432 575.731 92.9205C576.799 90.8864 578.305 89.3068 580.248 88.1818C582.191 87.0455 584.481 86.4773 587.117 86.4773C588.981 86.4773 590.685 86.767 592.231 87.3466C593.776 87.9261 595.112 88.7841 596.237 89.9205C597.362 91.0568 598.237 92.4602 598.862 94.1307C599.487 95.7898 599.799 97.6932 599.799 99.8409V101.92H577.043V97.0795H592.043C592.032 96.1932 591.822 95.4034 591.413 94.7102C591.004 94.017 590.441 93.4773 589.725 93.0909C589.021 92.6932 588.208 92.4943 587.288 92.4943C586.356 92.4943 585.521 92.7045 584.782 93.125C584.043 93.5341 583.458 94.0966 583.026 94.8125C582.594 95.517 582.367 96.3182 582.344 97.2159V102.142C582.344 103.21 582.555 104.148 582.975 104.955C583.396 105.75 583.992 106.369 584.765 106.812C585.538 107.256 586.458 107.477 587.526 107.477C588.265 107.477 588.935 107.375 589.538 107.17C590.14 106.966 590.657 106.665 591.089 106.267C591.521 105.869 591.844 105.381 592.06 104.801L599.714 105.023C599.396 106.739 598.697 108.233 597.617 109.506C596.549 110.767 595.146 111.75 593.407 112.455C591.668 113.148 589.657 113.494 587.373 113.494ZM616.295 113.494C613.556 113.494 611.192 112.955 609.204 111.875C607.227 110.784 605.704 109.233 604.636 107.222C603.579 105.199 603.05 102.795 603.05 100.011C603.05 97.3068 603.585 94.9432 604.653 92.9205C605.721 90.8864 607.227 89.3068 609.17 88.1818C611.113 87.0455 613.403 86.4773 616.039 86.4773C617.903 86.4773 619.607 86.767 621.153 87.3466C622.698 87.9261 624.033 88.7841 625.158 89.9205C626.283 91.0568 627.158 92.4602 627.783 94.1307C628.408 95.7898 628.721 97.6932 628.721 99.8409V101.92H605.965V97.0795H620.965C620.954 96.1932 620.744 95.4034 620.335 94.7102C619.925 94.017 619.363 93.4773 618.647 93.0909C617.942 92.6932 617.13 92.4943 616.21 92.4943C615.278 92.4943 614.442 92.7045 613.704 93.125C612.965 93.5341 612.38 94.0966 611.948 94.8125C611.516 95.517 611.289 96.3182 611.266 97.2159V102.142C611.266 103.21 611.477 104.148 611.897 104.955C612.317 105.75 612.914 106.369 613.687 106.812C614.46 107.256 615.38 107.477 616.448 107.477C617.187 107.477 617.857 107.375 618.46 107.17C619.062 106.966 619.579 106.665 620.011 106.267C620.442 105.869 620.766 105.381 620.982 104.801L628.636 105.023C628.317 106.739 627.619 108.233 626.539 109.506C625.471 110.767 624.067 111.75 622.329 112.455C620.59 113.148 618.579 113.494 616.295 113.494ZM647.756 86.8182V92.9545H631.239V86.8182H647.756ZM634.7 80.5455H643.035V104.767C643.035 105.278 643.114 105.693 643.273 106.011C643.444 106.318 643.688 106.54 644.006 106.676C644.325 106.801 644.705 106.864 645.148 106.864C645.467 106.864 645.802 106.835 646.154 106.778C646.518 106.71 646.79 106.653 646.972 106.608L648.234 112.625C647.836 112.739 647.273 112.881 646.546 113.051C645.83 113.222 644.972 113.33 643.972 113.375C642.018 113.466 640.342 113.239 638.944 112.693C637.558 112.136 636.495 111.273 635.756 110.102C635.029 108.932 634.677 107.46 634.7 105.688V80.5455ZM662.322 113V78.0909H686.663V84.9432H670.759V92.1023H685.418V98.9716H670.759V106.148H686.663V113H662.322ZM700.282 98.0682V113H691.947V86.8182H699.873V91.625H700.163C700.742 90.0227 701.731 88.767 703.129 87.858C704.526 86.9375 706.191 86.4773 708.123 86.4773C709.964 86.4773 711.56 86.892 712.913 87.7216C714.276 88.5398 715.333 89.6875 716.083 91.1648C716.844 92.6307 717.219 94.3466 717.208 96.3125V113H708.873V97.9489C708.884 96.4943 708.515 95.358 707.765 94.5398C707.026 93.7216 705.998 93.3125 704.68 93.3125C703.805 93.3125 703.032 93.5057 702.362 93.892C701.702 94.267 701.191 94.8068 700.827 95.5114C700.475 96.2159 700.293 97.0682 700.282 98.0682ZM727.056 113.494C725.829 113.494 724.778 113.062 723.903 112.199C723.039 111.335 722.613 110.29 722.624 109.062C722.613 107.858 723.039 106.83 723.903 105.977C724.778 105.114 725.829 104.682 727.056 104.682C728.215 104.682 729.238 105.114 730.124 105.977C731.022 106.83 731.477 107.858 731.488 109.062C731.477 109.881 731.261 110.625 730.84 111.295C730.431 111.966 729.891 112.5 729.221 112.898C728.562 113.295 727.84 113.494 727.056 113.494ZM727.056 95.5284C725.829 95.5284 724.778 95.1023 723.903 94.25C723.039 93.3864 722.613 92.3352 722.624 91.0966C722.613 89.892 723.039 88.8636 723.903 88.0114C724.778 87.1477 725.829 86.7159 727.056 86.7159C728.215 86.7159 729.238 87.1477 730.124 88.0114C731.022 88.8636 731.477 89.892 731.488 91.0966C731.477 91.9148 731.261 92.6591 730.84 93.3295C730.431 94 729.891 94.5341 729.221 94.9318C728.562 95.3295 727.84 95.5284 727.056 95.5284Z" fill="#18191F"/>
</g>
<g clip-path="url(#clip1_1972_2580)">
<rect x="347.5" y="184" width="80" height="80" rx="40" fill="#F4F5F7"/>
<g clip-path="url(#clip2_1972_2580)">
<path d="M393.5 222H399.5L396.5 218L393.5 222ZM393.5 226H399.5L396.5 230L393.5 226Z" fill="#D6B1FF"/>
<path d="M376.5 212H382.5V236H376.5C376.235 236 375.98 235.895 375.793 235.707C375.605 235.52 375.5 235.265 375.5 235V213C375.5 212.735 375.605 212.48 375.793 212.293C375.98 212.105 376.235 212 376.5 212Z" fill="#8C30F5"/>
<path d="M384.5 212H390.5C390.765 212 391.02 212.105 391.207 212.293C391.395 212.48 391.5 212.735 391.5 213V235C391.5 235.265 391.395 235.52 391.207 235.707C391.02 235.895 390.765 236 390.5 236H384.5V212Z" fill="#2EC5CE"/>
</g>
<g clip-path="url(#clip3_1972_2580)">
<path d="M352.789 292.909H359.721V313.023C359.712 314.907 359.262 316.555 358.372 317.966C357.482 319.367 356.251 320.456 354.679 321.233C353.116 322.009 351.307 322.398 349.252 322.398C347.434 322.398 345.782 322.08 344.295 321.446C342.818 320.812 341.639 319.827 340.758 318.491C339.887 317.156 339.456 315.447 339.466 313.364H346.468C346.497 314.112 346.639 314.751 346.895 315.281C347.16 315.802 347.524 316.195 347.988 316.46C348.452 316.725 349.006 316.858 349.65 316.858C350.323 316.858 350.891 316.716 351.355 316.432C351.819 316.138 352.169 315.707 352.406 315.139C352.652 314.571 352.78 313.866 352.789 313.023V292.909ZM372.104 322.312C370.494 322.312 369.031 321.896 367.715 321.062C366.399 320.229 365.347 318.979 364.561 317.312C363.775 315.646 363.382 313.577 363.382 311.105C363.382 308.539 363.79 306.427 364.604 304.77C365.418 303.113 366.484 301.886 367.8 301.091C369.126 300.295 370.551 299.898 372.076 299.898C373.221 299.898 374.202 300.097 375.016 300.494C375.83 300.883 376.503 301.384 377.033 302C377.563 302.616 377.966 303.255 378.24 303.918H378.382V300.182H385.328V322H378.453V318.463H378.24C377.947 319.135 377.53 319.765 376.99 320.352C376.451 320.939 375.774 321.413 374.959 321.773C374.154 322.133 373.203 322.312 372.104 322.312ZM374.519 316.901C375.362 316.901 376.081 316.664 376.678 316.19C377.275 315.707 377.734 315.03 378.056 314.159C378.378 313.288 378.539 312.265 378.539 311.091C378.539 309.898 378.378 308.87 378.056 308.009C377.743 307.147 377.284 306.484 376.678 306.02C376.081 305.556 375.362 305.324 374.519 305.324C373.657 305.324 372.928 305.561 372.331 306.034C371.735 306.508 371.28 307.175 370.968 308.037C370.665 308.899 370.513 309.917 370.513 311.091C370.513 312.265 370.669 313.288 370.982 314.159C371.294 315.03 371.744 315.707 372.331 316.19C372.928 316.664 373.657 316.901 374.519 316.901ZM410.886 300.182L403.4 322H395.446L387.974 300.182H395.289L399.309 315.21H399.537L403.571 300.182H410.886ZM420.815 322.312C419.205 322.312 417.742 321.896 416.426 321.062C415.109 320.229 414.058 318.979 413.272 317.312C412.486 315.646 412.093 313.577 412.093 311.105C412.093 308.539 412.501 306.427 413.315 304.77C414.129 303.113 415.195 301.886 416.511 301.091C417.837 300.295 419.262 299.898 420.787 299.898C421.932 299.898 422.913 300.097 423.727 300.494C424.541 300.883 425.214 301.384 425.744 302C426.274 302.616 426.677 303.255 426.951 303.918H427.093V300.182H434.039V322H427.164V318.463H426.951C426.658 319.135 426.241 319.765 425.701 320.352C425.162 320.939 424.484 321.413 423.67 321.773C422.865 322.133 421.913 322.312 420.815 322.312ZM423.23 316.901C424.073 316.901 424.792 316.664 425.389 316.19C425.985 315.707 426.445 315.03 426.767 314.159C427.089 313.288 427.25 312.265 427.25 311.091C427.25 309.898 427.089 308.87 426.767 308.009C426.454 307.147 425.995 306.484 425.389 306.02C424.792 305.556 424.073 305.324 423.23 305.324C422.368 305.324 421.639 305.561 421.042 306.034C420.446 306.508 419.991 307.175 419.679 308.037C419.376 308.899 419.224 309.917 419.224 311.091C419.224 312.265 419.38 313.288 419.693 314.159C420.005 315.03 420.455 315.707 421.042 316.19C421.639 316.664 422.368 316.901 423.23 316.901Z" fill="#18191F"/>
</g>
<rect x="632.5" y="184" width="80" height="80" rx="40" fill="#F4F5F7"/>
<path d="M681.5 236H672.5C672.235 236 671.98 235.895 671.793 235.707C671.605 235.52 671.5 235.265 671.5 235V233C671.5 232.735 671.605 232.48 671.793 232.293C671.98 232.105 672.235 232 672.5 232H681.5C681.765 232 682.02 232.105 682.207 232.293C682.395 232.48 682.5 232.735 682.5 233V235C682.5 235.265 682.395 235.52 682.207 235.707C682.02 235.895 681.765 236 681.5 236Z" fill="#D6B1FF"/>
<path d="M681.5 212H663.5C663.235 212 662.98 212.105 662.793 212.293C662.605 212.48 662.5 212.735 662.5 213V215C662.5 215.265 662.605 215.52 662.793 215.707C662.98 215.895 663.235 216 663.5 216H681.5C681.765 216 682.02 215.895 682.207 215.707C682.395 215.52 682.5 215.265 682.5 215V213C682.5 212.735 682.395 212.48 682.207 212.293C682.02 212.105 681.765 212 681.5 212Z" fill="#2EC5CE"/>
<path d="M681.5 218H663.5C663.235 218 662.98 218.105 662.793 218.293C662.605 218.48 662.5 218.735 662.5 219V229C662.5 229.265 662.605 229.52 662.793 229.707C662.98 229.895 663.235 230 663.5 230H681.5C681.765 230 682.02 229.895 682.207 229.707C682.395 229.52 682.5 229.265 682.5 229V219C682.5 218.735 682.395 218.48 682.207 218.293C682.02 218.105 681.765 218 681.5 218Z" fill="#8C30F5"/>
<g clip-path="url(#clip4_1972_2580)">
<path d="M616.245 322V292.909H623.276V305.21H623.659L633.276 292.909H641.557L631.245 305.892L641.742 322H633.333L626.088 310.565L623.276 314.116V322H616.245ZM652.914 322.412C650.622 322.412 648.652 321.943 647.005 321.006C645.366 320.059 644.102 318.742 643.212 317.057C642.331 315.362 641.891 313.397 641.891 311.162C641.891 308.918 642.331 306.953 643.212 305.267C644.102 303.572 645.366 302.256 647.005 301.318C648.652 300.371 650.622 299.898 652.914 299.898C655.205 299.898 657.17 300.371 658.809 301.318C660.456 302.256 661.721 303.572 662.601 305.267C663.491 306.953 663.936 308.918 663.936 311.162C663.936 313.397 663.491 315.362 662.601 317.057C661.721 318.742 660.456 320.059 658.809 321.006C657.17 321.943 655.205 322.412 652.914 322.412ZM652.956 317.17C653.79 317.17 654.495 316.915 655.073 316.403C655.65 315.892 656.091 315.182 656.394 314.273C656.706 313.364 656.863 312.312 656.863 311.119C656.863 309.907 656.706 308.847 656.394 307.938C656.091 307.028 655.65 306.318 655.073 305.807C654.495 305.295 653.79 305.04 652.956 305.04C652.095 305.04 651.365 305.295 650.769 305.807C650.182 306.318 649.732 307.028 649.419 307.938C649.116 308.847 648.965 309.907 648.965 311.119C648.965 312.312 649.116 313.364 649.419 314.273C649.732 315.182 650.182 315.892 650.769 316.403C651.365 316.915 652.095 317.17 652.956 317.17ZM679.81 300.182V305.295H666.046V300.182H679.81ZM668.929 294.955H675.875V315.139C675.875 315.565 675.942 315.911 676.074 316.176C676.216 316.432 676.42 316.616 676.685 316.73C676.95 316.834 677.267 316.886 677.637 316.886C677.902 316.886 678.181 316.863 678.475 316.815C678.778 316.759 679.005 316.711 679.157 316.673L680.208 321.688C679.876 321.782 679.408 321.901 678.801 322.043C678.205 322.185 677.49 322.275 676.657 322.312C675.028 322.388 673.631 322.199 672.466 321.744C671.311 321.28 670.426 320.561 669.81 319.585C669.204 318.61 668.91 317.384 668.929 315.906V294.955ZM683.823 292.909H690.769V315.182C690.778 315.75 690.906 316.171 691.152 316.446C691.399 316.711 691.787 316.844 692.317 316.844C692.592 316.834 692.81 316.82 692.971 316.801C693.132 316.773 693.264 316.74 693.368 316.702L694.419 321.602C694.097 321.706 693.709 321.811 693.255 321.915C692.81 322.019 692.166 322.09 691.323 322.128C688.757 322.241 686.867 321.806 685.655 320.821C684.443 319.827 683.832 318.203 683.823 315.949V292.909ZM696.44 322V300.182H703.386V322H696.44ZM699.92 297.639C698.945 297.639 698.107 297.317 697.406 296.673C696.705 296.02 696.355 295.234 696.355 294.315C696.355 293.406 696.705 292.63 697.406 291.986C698.107 291.332 698.945 291.006 699.92 291.006C700.905 291.006 701.743 291.332 702.434 291.986C703.135 292.63 703.485 293.406 703.485 294.315C703.485 295.234 703.135 296.02 702.434 296.673C701.743 297.317 700.905 297.639 699.92 297.639ZM714.753 309.557V322H707.807V300.182H714.412V304.188H714.654C715.137 302.852 715.961 301.806 717.125 301.048C718.29 300.281 719.677 299.898 721.287 299.898C722.821 299.898 724.152 300.243 725.279 300.935C726.415 301.616 727.296 302.573 727.921 303.804C728.555 305.026 728.868 306.455 728.858 308.094V322H721.912V309.457C721.922 308.245 721.614 307.298 720.989 306.616C720.373 305.935 719.516 305.594 718.418 305.594C717.689 305.594 717.045 305.755 716.486 306.077C715.937 306.389 715.511 306.839 715.208 307.426C714.914 308.013 714.763 308.723 714.753 309.557Z" fill="#18191F"/>
</g>
</g>
<defs>
<clipPath id="clip0_1972_2580">
<rect width="730" height="64" fill="white" transform="translate(165 64)"/>
</clipPath>
<clipPath id="clip1_1972_2580">
<rect width="540" height="182" fill="white" transform="translate(260 168)"/>
</clipPath>
<clipPath id="clip2_1972_2580">
<rect width="24" height="24" fill="white" transform="translate(375.5 212)"/>
</clipPath>
<clipPath id="clip3_1972_2580">
<rect width="207" height="54" fill="white" transform="translate(284 280)"/>
</clipPath>
<clipPath id="clip4_1972_2580">
<rect width="207" height="54" fill="white" transform="translate(569 280)"/>
</clipPath>
</defs>
</svg>
